<?xml version="1.0" encoding="UTF-8"?>
<svg width="67px" height="19px" viewBox="0 0 67 19" version="1.1" xmlns="http://www.w3.org/2000/svg" xmlns:xlink="http://www.w3.org/1999/xlink">
    <!-- Generator: Sketch 49.1 (51147) - http://www.bohemiancoding.com/sketch -->
    <title>Group 6</title>
    <desc>Created with Sketch.</desc>
    <defs></defs>
    <g id="Page-1" stroke="none" stroke-width="1" fill="none" fill-rule="evenodd">
        <g id="07_ViewReport" transform="translate(-575.000000, -543.000000)" fill="#006BD5">
            <g id="Group-7" transform="translate(420.000000, 526.000000)">
                <g id="Group-6" transform="translate(147.000000, 17.000000)">
                    <path d="M61.4387478,13.5283 L70.8479153,13.5283 C71.5863759,13.5283 72.1850165,14.1245364 72.1850165,14.8715836 C72.1850165,15.6134587 71.5904918,16.2148672 70.8479153,16.2148672 L60.0892819,16.2148672 C59.7210688,16.2148672 59.3876183,16.0666283 59.1458105,15.8253698 C58.9016986,15.5814722 58.7521806,15.2480229 58.7521806,14.877766 L58.7521806,4.1191326 C58.7521806,3.38067199 59.348417,2.78203139 60.0954642,2.78203139 C60.8373393,2.78203139 61.4387478,3.37655603 61.4387478,4.1191326 L61.4387478,13.5283 Z" id="Arrow" transform="translate(65.468599, 9.498449) rotate(-135.000000) translate(-65.468599, -9.498449) "></path>
                    <path d="M50.244718,13.5283 L59.6538854,13.5283 C60.392346,13.5283 60.9909866,14.1245364 60.9909866,14.8715836 C60.9909866,15.6134587 60.396462,16.2148672 59.6538854,16.2148672 L48.895252,16.2148672 C48.5270389,16.2148672 48.1935885,16.0666283 47.9517806,15.8253698 C47.7076688,15.5814722 47.5581508,15.2480229 47.5581508,14.877766 L47.5581508,4.1191326 C47.5581508,3.38067199 48.1543871,2.78203139 48.9014344,2.78203139 C49.6433094,2.78203139 50.244718,3.37655603 50.244718,4.1191326 L50.244718,13.5283 Z" id="Arrow" fill-opacity="0.9" transform="translate(54.274569, 9.498449) rotate(-135.000000) translate(-54.274569, -9.498449) "></path>
                    <path d="M39.0506881,13.5283 L48.4598556,13.5283 C49.1983162,13.5283 49.7969568,14.1245364 49.7969568,14.8715836 C49.7969568,15.6134587 49.2024321,16.2148672 48.4598556,16.2148672 L37.7012222,16.2148672 C37.3330091,16.2148672 36.9995586,16.0666283 36.7577508,15.8253698 C36.5136389,15.5814722 36.3641209,15.2480229 36.3641209,14.877766 L36.3641209,4.1191326 C36.3641209,3.38067199 36.9603573,2.78203139 37.7074045,2.78203139 C38.4492796,2.78203139 39.0506881,3.37655603 39.0506881,4.1191326 L39.0506881,13.5283 Z" id="Arrow" fill-opacity="0.7" transform="translate(43.080539, 9.498449) rotate(-135.000000) translate(-43.080539, -9.498449) "></path>
                    <path d="M27.8566583,13.5283 L37.2658257,13.5283 C38.0042863,13.5283 38.6029269,14.1245364 38.6029269,14.8715836 C38.6029269,15.6134587 38.0084023,16.2148672 37.2658257,16.2148672 L26.5071923,16.2148672 C26.1389792,16.2148672 25.8055288,16.0666283 25.5637209,15.8253698 C25.3196091,15.5814722 25.1700911,15.2480229 25.1700911,14.877766 L25.1700911,4.1191326 C25.1700911,3.38067199 25.7663274,2.78203139 26.5133747,2.78203139 C27.2552497,2.78203139 27.8566583,3.37655603 27.8566583,4.1191326 L27.8566583,13.5283 Z" id="Arrow" fill-opacity="0.6" transform="translate(31.886509, 9.498449) rotate(-135.000000) translate(-31.886509, -9.498449) "></path>
                    <path d="M16.6626284,13.5283 L26.0717959,13.5283 C26.8102565,13.5283 27.4088971,14.1245364 27.4088971,14.8715836 C27.4088971,15.6134587 26.8143724,16.2148672 26.0717959,16.2148672 L15.3131625,16.2148672 C14.9449494,16.2148672 14.6114989,16.0666283 14.3696911,15.8253698 C14.1255792,15.5814722 13.9760612,15.2480229 13.9760612,14.877766 L13.9760612,4.1191326 C13.9760612,3.38067199 14.5722976,2.78203139 15.3193448,2.78203139 C16.0612199,2.78203139 16.6626284,3.37655603 16.6626284,4.1191326 L16.6626284,13.5283 Z" id="Arrow" fill-opacity="0.4" transform="translate(20.692479, 9.498449) rotate(-135.000000) translate(-20.692479, -9.498449) "></path>
                    <path d="M5.46859855,13.5283 L14.877766,13.5283 C15.6162266,13.5283 16.2148672,14.1245364 16.2148672,14.8715836 C16.2148672,15.6134587 15.6203426,16.2148672 14.877766,16.2148672 L4.1191326,16.2148672 C3.75091951,16.2148672 3.41746909,16.0666283 3.1756612,15.8253698 C2.93154939,15.5814722 2.78203139,15.2480229 2.78203139,14.877766 L2.78203139,4.1191326 C2.78203139,3.38067199 3.37826772,2.78203139 4.12531497,2.78203139 C4.86719001,2.78203139 5.46859855,3.37655603 5.46859855,4.1191326 L5.46859855,13.5283 Z" id="Arrow" fill-opacity="0.3" transform="translate(9.498449, 9.498449) rotate(-135.000000) translate(-9.498449, -9.498449) "></path>
                </g>
            </g>
        </g>
    </g>
</svg>