<?xml version="1.0" encoding="UTF-8"?>
<svg width="18px" height="19px" viewBox="0 0 18 19" version="1.1" xmlns="http://www.w3.org/2000/svg" xmlns:xlink="http://www.w3.org/1999/xlink">
    <!-- Generator: Sketch 49.1 (51147) - http://www.bohemiancoding.com/sketch -->
    <title>ic_Settings</title>
    <desc>Created with Sketch.</desc>
    <defs></defs>
    <g id="Page-1" stroke="none" stroke-width="1" fill="none" fill-rule="evenodd">
        <g id="01_Home" transform="translate(-1044.000000, -32.000000)" fill="#FFFFFF">
            <g id="Group-2" transform="translate(1044.000000, 31.000000)">
                <path d="M7.8688209,8.11772552 L0.415880597,15.5706658 C0.138626866,15.8477852 1.77635684e-15,16.1798449 1.77635684e-15,16.5665763 C1.77635684e-15,16.9605613 0.138626866,17.2888599 0.415880597,17.5516061 L1.5759403,18.7335613 C1.86058209,19.0035613 2.19250746,19.138427 2.57185075,19.138427 C2.95858209,19.138427 3.2868806,19.0035613 3.5568806,18.7335613 L11.0205672,11.2697404 C10.305806,10.9850987 9.67285075,10.5673375 9.12183582,10.0165912 C8.57108955,9.4657106 8.15346269,8.83275537 7.8688209,8.11772552 L7.8688209,8.11772552 Z M3.7648209,16.358636 C3.6260597,16.4971285 3.46191045,16.5665763 3.27223881,16.5665763 C3.08256716,16.5665763 2.91841791,16.4971285 2.77979104,16.358636 C2.64116418,16.2200091 2.57185075,16.0558599 2.57185075,15.8661882 C2.57185075,15.6765166 2.64116418,15.512233 2.77979104,15.3734718 C2.91841791,15.2349793 3.08243284,15.1656658 3.27223881,15.1656658 C3.46204478,15.1656658 3.62619403,15.2349793 3.7648209,15.3734718 C3.90344776,15.512233 3.97276119,15.6765166 3.97276119,15.8661882 C3.97276119,16.0558599 3.90344776,16.2200091 3.7648209,16.358636 Z M17.8664776,6.23524791 C17.928403,6.30832254 17.9595672,6.39953149 17.9592985,6.50874045 C17.9592985,6.79324791 17.8753433,7.17997925 17.7077015,7.66880015 C17.3647612,8.64644194 16.7645821,9.43991955 15.9074328,10.0490987 C15.0501493,10.6582778 14.1071642,10.9630688 13.078209,10.9630688 C11.7284776,10.9630688 10.5739254,10.4832479 9.61455224,9.52387478 C8.6551791,8.56450164 8.17535821,7.40981507 8.17535821,6.06008373 C8.17535821,4.71035239 8.65491045,3.55566582 9.61455224,2.59629269 C10.5739254,1.63691955 11.7284776,1.15709866 13.078209,1.15709866 C13.5013433,1.15709866 13.9446269,1.21727776 14.4079254,1.33763597 C14.8710896,1.45799418 15.2633284,1.6276509 15.5843731,1.84660612 C15.7011045,1.92693448 15.7595373,2.02902403 15.7595373,2.1530091 C15.7595373,2.27699418 15.7011045,2.37921806 15.5843731,2.45941209 L12.3778209,4.30911358 L12.3778209,6.76060612 L14.4902687,7.93168075 C14.5266716,7.90978522 14.814806,7.73287478 15.354806,7.40081507 C15.8946716,7.06875537 16.389,6.77336731 16.837791,6.51438224 C17.2865821,6.25539716 17.5436866,6.1257703 17.6092388,6.1257703 C17.7185821,6.1257703 17.8044179,6.16217328 17.8664776,6.23524791 Z" id="ic_Settings"></path>
            </g>
        </g>
    </g>
</svg>