<?xml version="1.0" encoding="UTF-8"?>
<svg width="25px" height="21px" viewBox="0 0 25 21" version="1.1" xmlns="http://www.w3.org/2000/svg" xmlns:xlink="http://www.w3.org/1999/xlink">
    <!-- Generator: Sketch 49.1 (51147) - http://www.bohemiancoding.com/sketch -->
    <title>Group</title>
    <desc>Created with Sketch.</desc>
    <defs></defs>
    <g id="Page-1" stroke="none" stroke-width="1" fill="none" fill-rule="evenodd">
        <g id="01_Home" transform="translate(-1168.000000, -31.000000)" fill="#FFFFFF">
            <g id="Group-3" transform="translate(1168.000000, 31.000000)">
                <g id="Group">
                    <path d="M10.1883102,18.7733785 C10.1564742,18.6887208 10.1455367,18.6169077 10.1562789,18.5587177 C10.1670211,18.5009169 10.1299117,18.4530415 10.0449508,18.4162592 C9.95998986,18.3794769 9.91760704,18.35009 9.91760704,18.3290715 C9.91760704,18.3080531 9.85666954,18.2920946 9.73459923,18.2815854 C9.61252892,18.2708815 9.55159142,18.2656269 9.55159142,18.2656269 L9.34475548,18.2656269 L9.16975548,18.2656269 L4.58694298,18.2656269 C3.88674767,18.2656269 3.28733361,18.0174923 2.78870079,17.5204446 C2.29006798,17.0235915 2.04084923,16.4265115 2.04084923,15.72901 L2.04084923,4.56626077 C2.04084923,3.86856462 2.29006798,3.27148462 2.78870079,2.77463154 C3.28733361,2.27777846 3.88674767,2.02925462 4.58694298,2.02925462 L9.67893517,2.02925462 C9.81682579,2.02925462 9.92541954,1.99519692 10.005107,1.92630308 C10.0845992,1.85760385 10.1375289,1.75445769 10.1640914,1.61705923 C10.1906539,1.47966077 10.2066695,1.35549615 10.211943,1.24456538 C10.2172164,1.13363462 10.2146774,0.993511538 10.2039352,0.824390769 C10.1933883,0.65527 10.1881149,0.549593846 10.1881149,0.507167692 C10.1881149,0.369769231 10.1377242,0.251053846 10.036943,0.150437692 C9.93616173,0.0502107692 9.81682579,0 9.67893517,0 L4.58694298,0 C3.32463829,0 2.24514611,0.446642308 1.34866173,1.33973231 C0.452372668,2.23301692 0.00413048041,3.30846154 0.00413048041,4.56645538 L0.00413048041,15.7288154 C0.00413048041,16.9866146 0.452372668,18.0622538 1.34866173,18.9553438 C2.24514611,19.8488231 3.32463829,20.2954654 4.58694298,20.2954654 L9.67913048,20.2954654 C9.81702111,20.2954654 9.92561486,20.2610185 10.0053024,20.1925138 C10.0847945,20.12362 10.1377242,20.0206685 10.1642867,19.8830754 C10.1908492,19.7458715 10.2068649,19.6213177 10.2121383,19.5105815 C10.2174117,19.3996508 10.2148727,19.2597223 10.2041305,19.0906015 C10.1935836,18.9214808 10.1883102,18.8158046 10.1883102,18.7733785 L10.1883102,18.7733785 Z" id="Shape"></path>
                    <path d="M24.6529586,9.43417538 L15.9965133,0.808432308 C15.7951461,0.607783846 15.5562789,0.507167692 15.2804977,0.507167692 C15.0047164,0.507167692 14.7658492,0.607783846 14.5642867,0.808432308 C14.3627242,1.00927538 14.261943,1.24729 14.261943,1.52208692 L14.261943,6.08854231 L7.13303673,6.08854231 C6.85706017,6.08854231 6.61838829,6.18915846 6.41682579,6.38980692 C6.21526329,6.59065 6.11448204,6.82866462 6.11448204,7.10346154 L6.11448204,13.1921985 C6.11448204,13.4669954 6.21526329,13.70501 6.41682579,13.9056585 C6.61858361,14.1063069 6.85725548,14.2071177 7.13303673,14.2071177 L14.261943,14.2071177 L14.261943,18.7735731 C14.261943,19.0481754 14.3627242,19.2863846 14.5642867,19.4870331 C14.7658492,19.6878762 15.0047164,19.7882977 15.2804977,19.7882977 C15.5562789,19.7882977 15.7951461,19.6878762 15.9965133,19.4870331 L24.6529586,10.8614846 C24.8545211,10.6606415 24.9553024,10.4228215 24.9553024,10.1480246 C24.9553024,9.87322769 24.8545211,9.63501846 24.6529586,9.43417538 L24.6529586,9.43417538 Z" id="Shape"></path>
                </g>
            </g>
        </g>
    </g>
</svg>