<?xml version="1.0" encoding="UTF-8"?>
<svg width="28px" height="28px" viewBox="0 0 28 28" version="1.1" xmlns="http://www.w3.org/2000/svg" xmlns:xlink="http://www.w3.org/1999/xlink">
    <!-- Generator: Sketch 49.1 (51147) - http://www.bohemiancoding.com/sketch -->
    <title>Oval Copy</title>
    <desc>Created with Sketch.</desc>
    <defs></defs>
    <g id="Page-1" stroke="none" stroke-width="1" fill="none" fill-rule="evenodd">
        <g id="14_Success" transform="translate(-595.000000, -383.000000)" fill="#7ED321">
            <g id="Group-8" transform="translate(43.000000, 307.000000)">
                <path d="M566,104 C558.268014,104 552,97.7319865 552,90 C552,82.2680135 558.268014,76 566,76 C573.731986,76 580,82.2680135 580,90 C580,97.7319865 573.731986,104 566,104 Z M570.730375,86.2100805 C570.585938,86.0699961 570.410332,86 570.203939,86 C569.99745,86 569.821845,86.0699961 569.677407,86.2100805 L564.598719,91.1400196 L562.322593,88.9263915 C562.17806,88.7863071 562.00255,88.7163109 561.796156,88.7163109 C561.589668,88.7163109 561.414157,88.7863071 561.269625,88.9263915 L560.216751,89.9468616 C560.072219,90.086946 560,90.257055 560,90.4571887 C560,90.6572304 560.072219,90.8274315 560.216751,90.9674238 L563.019314,93.6837347 L564.072282,94.7042049 C564.21672,94.8442892 564.39223,94.9142854 564.598719,94.9142854 C564.805112,94.9142854 564.980623,94.8441971 565.125155,94.7042049 L566.178124,93.6837347 L571.783249,88.2511129 C571.927686,88.1110285 572,87.9409194 572,87.7407857 C572.000095,87.5407441 571.927686,87.370635 571.783249,87.2305507 L570.730375,86.2100805 Z" id="Oval-Copy"></path>
            </g>
        </g>
    </g>
</svg>